# xmcd
#
# Track frame offsets:
#	150
#	16320
#	33131
#	52689
#	74001
#	89008
#	108066
#	125165
#	142640
#	160796
#	178727
#	199128
#	216246
#
# Disc length: 3082 seconds
#
# Revision: 1
# Processed by: cddbd v1.5.2PL0 Copyright (c) Steve Scherf et al.
# Submitted via: EZCDAudioConverter 7.1.5.1
#
DISCID=af0c080d
DTITLE=Paul Etterlin
DYEAR=1900
DGENRE=blues
TTITLE0=Radio
TTITLE1=Warrior
TTITLE2=Silver Machines
TTITLE3=Love at 1st sight
TTITLE4=Life that's free
TTITLE5=Slow Kiss
TTITLE6=Never been to Spain
TTITLE7=Sweet Dream Girl
TTITLE8=No Train Tomorrow
TTITLE9=Rock 'n' Roll Dream
TTITLE10=Listen to the wind
TTITLE11=Breaking my heart
TTITLE12=Die for you
EXTD=
EXTT0=
EXTT1=
EXTT2=
EXTT3=
EXTT4=
EXTT5=
EXTT6=
EXTT7=
EXTT8=
EXTT9=
EXTT10=
EXTT11=
EXTT12=
PLAYORDER=
